<svg xmlns="http://www.w3.org/2000/svg" xmlns:xlink="http://www.w3.org/1999/xlink" xmlns:lucid="lucid" width="3016" height="1524.2"><g transform="translate(20841 4440)" lucid:page-tab-id="0_0"><path d="M-18807-4434a6 6 0 0 1 6-6h970a6 6 0 0 1 6 6v719a6 6 0 0 1-6 6h-970a6 6 0 0 1-6-6z" fill="url(#a)"/><path d="M-19799-4434a6 6 0 0 1 6-6h980a6 6 0 0 1 6 6v715a6 6 0 0 1-6 6h-980a6 6 0 0 1-6-6z" fill="url(#b)"/><path d="M-20840-4415.2a6 6 0 0 1 6-6h868a6 6 0 0 1 6 6v700.2a6 6 0 0 1-6 6h-868a6 6 0 0 1-6-6z" stroke="#6db1ff" stroke-width="2" fill="#edf5ff"/><path d="M-19938.38-4065.5l7-.13 19.25-1.2 18.1-1.9 48.16-6.04 19.24-1.2 10.14-.2" stroke="#3a414a" stroke-width="3" stroke-linejoin="round" fill="none"/><path d="M-19954.14-4065.2l14.17-4.9.18 9.27zM-19802-4076.44l-12.84 7.75-.3-15z" stroke="#3a414a" stroke-width="3" fill="#3a414a"/><path d="M-19807-3554a6 6 0 0 1 6-6h988a6 6 0 0 1 6 6v461a6 6 0 0 1-6 6h-988a6 6 0 0 1-6-6z" fill="url(#C)"/><path d="M-20400-3687.38v39.9" stroke="#3a414a" stroke-width="3" stroke-linejoin="round" fill="none"/><path d="M-20400-3703.14l4.63 14.26h-9.26zM-20400-3633l-7.5-13h15z" stroke="#3a414a" stroke-width="3" fill="#3a414a"/><path d="M-20840-3623a6 6 0 0 1 6-6h868a6 6 0 0 1 6 6v700.2a6 6 0 0 1-6 6h-868a6 6 0 0 1-6-6z" stroke="#6db1ff" stroke-width="2" fill="#edf5ff"/><path d="M-19938.45-3274.33l2.77-.4 4.7-.9 4.42-1.04 4.23-1.18 4.1-1.33 4.06-1.5 4.1-1.73 4.26-2.02 4.63-2.43 5.58-3.23 10.78-6.9 14.4-9.34 5.6-3.23 4.63-2.43 4.28-2 4.1-1.73 4.04-1.52 4.1-1.33 4.24-1.18 4.43-1.04 4.68-.9 5.03-.74.85-.1" stroke="#3a414a" stroke-width="3" stroke-linejoin="round" fill="none"/><path d="M-19954.15-3273.24l13.9-5.6.65 9.24zM-19810-3323.33l-12.53 8.24-.87-14.97z" stroke="#3a414a" stroke-width="3" fill="#3a414a"/></g></svg>
